<?xml version="1.0" encoding="utf-8"?>
<!-- Generator: Adobe Illustrator 27.5.0, SVG Export Plug-In . SVG Version: 6.00 Build 0)  -->
<svg version="1.1" xmlns="http://www.w3.org/2000/svg" xmlns:xlink="http://www.w3.org/1999/xlink" x="0px" y="0px"
	 viewBox="0 0 500 500" style="enable-background:new 0 0 500 500;" xml:space="preserve">
<g id="BACKGROUND">
	<rect style="fill:#FFFFFF;" width="500" height="500"/>
</g>
<g id="OBJECTS">
	<g>
		<path style="fill:#EEE8FF;" d="M121.755,82.924c-0.968,0.66-1.923,1.332-2.865,2.012c-14.637,10.57-53.77,27.101-46.85,50.275
			c2.744,9.186,12.659,14.037,21.823,16.852c33.207,10.201,49.807-4.372,75.02-25.592c8.906-7.495,18.487-16.236,19.475-27.834
			c1.266-14.859-13.415-27.433-28.282-28.599C146.368,68.966,133.202,75.115,121.755,82.924z"/>
		<path style="fill:#EEE8FF;" d="M386.034,370.708c-14.909,17.369-23.213,42.089,2.887,54.704
			c25.759,12.451,48.491-9.545,56.039-32.713c4.365-13.398,1.375-30.307-10.587-37.756c-10.681-6.651-25.195-3.723-35.365,3.685
			C394.567,361.864,390.06,366.018,386.034,370.708z"/>
		<path style="fill:#EEE8FF;" d="M124.419,408.725c-9.682-7.392-18.438-16.052-25.915-25.559
			c-31.295-39.786-36.846-99.378-8.847-142.524c21.22-32.7,57.251-54.105,95.281-62.669c16.457-3.706,33.511-5.248,49.264-11.281
			c25.674-9.832,45.619-30.776,60.996-53.565c8.301-12.303,15.732-25.539,26.975-35.229c16.29-14.039,39.61-18.919,60.557-14.052
			c20.947,4.867,39.284,18.947,50.754,37.138c6.968,11.05,11.57,23.708,12.438,36.743c1.588,23.848-9.318,47-23.908,65.931
			s-32.86,34.653-49.175,52.119c-24.027,25.722-37.547,57.826-53.752,88.548c-12.04,22.825-27.335,44.249-47.157,60.773
			c-19.822,16.524-44.439,27.933-70.204,29.382C173.918,436.047,146.714,425.747,124.419,408.725z"/>
		<path style="fill:none;stroke:#C0A4FC;stroke-width:2;stroke-linecap:round;stroke-miterlimit:10;" d="M320.145,349.316v32.363
			c0,2.66,2.357,4.816,5.265,4.816h18.381"/>
		<path style="fill:none;stroke:#C0A4FC;stroke-width:2;stroke-linecap:round;stroke-miterlimit:10;" d="M276.78,259.907v34.847
			c0,2.52,2.042,4.562,4.562,4.562h51.089"/>
		<path style="fill:none;stroke:#C0A4FC;stroke-width:2;stroke-linecap:round;stroke-miterlimit:10;" d="M248.63,251.707v25.099
			c0,2.927-2.373,5.3-5.3,5.3H125.837c-4.233,0-7.664,3.431-7.664,7.664v29.46"/>
		<g>
			<g>
				<g>
					<rect x="320.935" y="84.959" style="fill:#FF6363;" width="9.731" height="7.882"/>
					<rect x="339.14" y="84.959" style="fill:#FF6363;" width="25.425" height="7.882"/>
					<rect x="386.812" y="84.959" style="fill:#FF6363;" width="31.781" height="7.882"/>
					<rect x="426.009" y="84.959" style="fill:#FF6363;" width="22.247" height="7.882"/>
					<rect x="359.268" y="98.971" style="fill:#FF6363;" width="14.831" height="7.882"/>
					<rect x="320.935" y="98.971" style="fill:#FF6363;" width="28.799" height="7.882"/>
					<rect x="415.415" y="98.971" style="fill:#FF6363;" width="25.425" height="7.882"/>
				</g>
				<path style="fill:none;stroke:#1C1C1B;stroke-linecap:round;stroke-linejoin:round;stroke-miterlimit:10;" d="M449.82,80.769
					L449.82,80.769c3.112,0,5.634,2.587,5.634,5.777v4.106c0,1.532,0.594,3.002,1.65,4.085l1.695,1.738l-1.167,1.196
					c-1.057,1.083-1.65,2.553-1.65,4.085v3.49c0,3.191-2.522,5.777-5.634,5.777h-0.929"/>
				<path style="fill:none;stroke:#1C1C1B;stroke-linecap:round;stroke-linejoin:round;stroke-miterlimit:10;" d="M320.151,80.769
					L320.151,80.769c-3.112,0-5.634,2.587-5.634,5.777v4.106c0,1.532-0.594,3.002-1.65,4.085l-1.695,1.738l1.167,1.196
					c1.057,1.083,1.65,2.553,1.65,4.085v3.49c0,3.191,2.522,5.777,5.634,5.777h0.929"/>
			</g>
			
				<line style="fill:none;stroke:#1C1C1B;stroke-linecap:round;stroke-linejoin:round;stroke-miterlimit:10;" x1="374.845" y1="84.606" x2="387.557" y2="107.206"/>
		</g>
		<g>
			<g>
				<path style="fill:#7A5CE0;" d="M343.047,232.497c5.629-4.922,7.751-13.116,7.791-20.721c0.018-3.429-0.352-6.896-1.377-10.179
					c-0.959-3.074-1.838-4.729-4.755-6.453c1.289-3.876,1.889-7.526,0.162-11.353c-1.461-3.236-4.27-5.93-7.697-6.86l0.012,0.159
					c-0.126-0.082-0.253-0.161-0.382-0.232c-0.049-1.44-0.373-2.873-0.996-4.163c-0.806-1.665-2.017-3.102-3.454-4.258
					c-1.7-1.368-3.722-1.758-5.786-2.387c-0.322-0.098-0.65-0.199-0.93-0.388c-0.408-0.275-0.675-0.71-0.953-1.116
					c-1.793-2.614-4.598-4.514-7.69-5.208c-0.324-0.073-0.669-0.142-0.915-0.366c-0.231-0.21-0.334-0.522-0.444-0.814
					c-1.175-3.131-4.217-5.477-7.544-5.817c-0.258-0.026-0.533-0.048-0.74-0.204c-0.165-0.125-0.26-0.318-0.354-0.502
					c-1.622-3.194-4.358-5.807-7.623-7.281c-3.265-1.473-7.035-1.796-10.503-0.898c-0.594-3.224-2.802-6-5.579-7.742
					c-2.789-1.75-5.911-3.146-9.23-3.163c-3.557-0.018-6.179,1.912-8.771,4.17c0.095-1.167-0.519-2.281-1.272-3.178
					c-1.687-2.01-4.191-3.312-6.805-3.539c-2.614-0.227-5.305,0.624-7.313,2.313l0.025,0.015c-0.03,0.007-0.06,0.012-0.09,0.018
					c-0.066-0.139-0.129-0.28-0.225-0.404c-0.385-0.495-0.971-0.786-1.545-1.038c-9.739-4.265-22.157-1.234-28.836,7.038
					c-3.722-2.144-8.362-2.628-12.446-1.298s-7.55,4.452-9.297,8.377c-0.558-0.947-1.735-1.312-2.819-1.499
					c-5.028-0.869-10.4,0.485-14.415,3.635c-4.015,3.15-6.609,8.045-6.961,13.136c-5.935,0.052-11.766,3.119-15.172,7.98
					c-1.451,2.071-2.463,4.638-2.189,7.098c-1.154,0.931-2.141,1.986-2.839,3.045c-1.584,2.402-2.27,5.468-1.504,8.277
					c0.341,1.251,1.022,2.343,1.712,3.422c-5.697,1.308-9.654,7.139-9.926,12.986c-0.193,4.158,1.189,8.215,3.427,11.763
					l-0.107-0.063c-1.891,3.774-1.901,8.434-0.026,12.216c1.874,3.782,5.59,6.596,9.737,7.376c2.464,0.464,5.099,0.215,7.319-0.948
					c0.031,0.006,0.062,0.007,0.094,0.012c0.884,4.012,3.992,7.183,7.977,8.193c2.436,0.618,5.003,0.396,7.49,0.039
					c3.469-0.498,7-1.293,9.893-3.272c0.221-0.151,0.436-0.311,0.646-0.479c0.18,0.135,0.36,0.273,0.54,0.409
					c-0.313,4.43,1.689,8.965,5.135,11.792c3.858,3.167,7.734,4.364,12.553,3.107c1.06,3.823,4.074,6.947,7.685,8.589
					c3.611,1.642,7.755,1.893,11.659,1.189c3.172-0.572,6.57-2.081,7.695-5.102c2.363,1.735,5.997,2.532,8.849,1.926
					c2.263-0.481,4.43-2.542,6.649-2.808c0.887-0.107,1.777-0.2,2.666-0.301c3.795,10.902,16.116,16.083,27.09,12.206
					c5.376,7.243,14.096,11.753,23.085,12.512c8.988,0.759,18.136-2.099,25.445-7.385c6.948-5.025,12.589-13.683,10.039-21.87
					c7.797-3.027,10.94-13.881,5.236-19.998L343.047,232.497z"/>
				<path style="fill:none;stroke:#1D1D1B;stroke-width:2;stroke-linecap:round;stroke-linejoin:round;stroke-miterlimit:10;" d="
					M339.352,226.586c5.629-4.922,7.751-13.116,7.791-20.721c0.018-3.429-0.352-6.896-1.377-10.179
					c-0.96-3.074-1.838-4.729-4.755-6.453c1.289-3.876,1.889-7.526,0.162-11.353c-1.461-3.236-4.27-5.93-7.697-6.86l0.012,0.159
					c-0.126-0.082-0.253-0.161-0.382-0.232c-0.048-1.44-0.373-2.873-0.996-4.162c-0.806-1.665-2.017-3.102-3.454-4.258
					c-1.7-1.368-3.722-1.758-5.786-2.387c-0.322-0.098-0.65-0.199-0.93-0.388c-0.408-0.275-0.675-0.71-0.953-1.116
					c-1.792-2.614-4.598-4.514-7.69-5.208c-0.324-0.073-0.669-0.142-0.915-0.366c-0.231-0.21-0.334-0.522-0.444-0.814
					c-1.175-3.131-4.217-5.477-7.544-5.817c-0.258-0.026-0.533-0.048-0.74-0.204c-0.165-0.125-0.26-0.318-0.354-0.502
					c-1.622-3.194-4.358-5.807-7.623-7.281c-3.265-1.473-7.035-1.796-10.503-0.898c-0.594-3.224-2.802-6-5.579-7.742
					c-2.789-1.749-5.911-3.147-9.23-3.163c-3.557-0.018-6.179,1.912-8.771,4.17c0.095-1.167-0.519-2.281-1.272-3.178
					c-1.687-2.01-4.191-3.312-6.805-3.539c-2.614-0.227-5.305,0.624-7.313,2.313l0.025,0.016c-0.03,0.007-0.06,0.012-0.09,0.018
					c-0.066-0.139-0.129-0.28-0.226-0.404c-0.384-0.496-0.971-0.786-1.545-1.038c-9.739-4.265-22.157-1.234-28.836,7.038
					c-3.723-2.144-8.362-2.628-12.447-1.298c-4.085,1.33-7.55,4.452-9.297,8.377c-0.558-0.948-1.735-1.312-2.819-1.499
					c-5.028-0.87-10.4,0.485-14.415,3.635c-4.015,3.15-6.609,8.045-6.961,13.136c-5.935,0.052-11.766,3.119-15.172,7.98
					c-1.451,2.071-2.463,4.638-2.189,7.098c-1.154,0.931-2.141,1.986-2.839,3.045c-1.584,2.403-2.27,5.468-1.503,8.277
					c0.341,1.251,1.022,2.343,1.712,3.422c-5.697,1.308-9.654,7.139-9.926,12.986c-0.193,4.158,1.189,8.215,3.427,11.763
					l-0.107-0.063c-1.891,3.774-1.901,8.434-0.026,12.216c1.874,3.782,5.59,6.596,9.737,7.376c2.464,0.464,5.099,0.214,7.319-0.948
					c0.031,0.005,0.062,0.007,0.094,0.012c0.884,4.012,3.992,7.183,7.977,8.193c2.436,0.618,5.003,0.396,7.49,0.039
					c3.469-0.498,7-1.293,9.892-3.272c0.221-0.151,0.436-0.311,0.646-0.479c0.18,0.135,0.36,0.273,0.54,0.409
					c-0.313,4.43,1.689,8.965,5.135,11.792c3.858,3.167,7.734,4.364,12.553,3.107c1.06,3.822,4.074,6.947,7.685,8.589
					s7.755,1.893,11.659,1.189c3.172-0.572,6.57-2.081,7.695-5.102c2.363,1.736,5.997,2.532,8.849,1.926
					c2.264-0.481,4.43-2.542,6.65-2.808c0.887-0.107,1.777-0.201,2.666-0.301c3.795,10.902,16.116,16.083,27.09,12.205
					c5.376,7.243,14.096,11.753,23.085,12.512c8.988,0.759,18.136-2.099,25.445-7.386c6.948-5.025,12.589-13.683,10.039-21.869
					c7.797-3.027,10.94-13.881,5.236-19.998L339.352,226.586z"/>
				<line style="fill:none;stroke:#000000;stroke-miterlimit:10;" x1="202.152" y1="214.04" x2="200.483" y2="235.803"/>
				<polyline style="fill:none;stroke:#000000;stroke-miterlimit:10;" points="231.064,201.566 228.69,219.53 232.393,238.794 
					215.13,231.26 200.483,235.803 179.21,220.18 				"/>
				<line style="fill:none;stroke:#000000;stroke-miterlimit:10;" x1="247.948" y1="226.643" x2="275.651" y2="236.127"/>
				<line style="fill:none;stroke:#000000;stroke-miterlimit:10;" x1="294.551" y1="191.927" x2="290.625" y2="221.152"/>
				<polyline style="fill:none;stroke:#000000;stroke-miterlimit:10;" points="191.841,199.24 202.152,214.04 222.421,182.62 				
					"/>
				<polyline style="fill:none;stroke:#000000;stroke-miterlimit:10;" points="210.455,158.023 220.759,171.319 253.999,165.335 
					279.261,163.009 				"/>
				<line style="fill:none;stroke:#000000;stroke-miterlimit:10;" x1="292.497" y1="259.462" x2="239.005" y2="243.156"/>
				<polyline style="fill:none;stroke:#000000;stroke-miterlimit:10;" points="320.074,246.11 298.736,239.246 274.943,237.499 				
					"/>
				<polyline style="fill:none;stroke:#000000;stroke-miterlimit:10;" points="271.283,206.22 290.625,221.152 312.213,221.028 				
					"/>
				<line style="fill:none;stroke:#000000;stroke-miterlimit:10;" x1="308.552" y1="163.626" x2="298.57" y2="190.58"/>
				<polyline style="fill:none;stroke:#000000;stroke-miterlimit:10;" points="209.514,154.767 253.979,162.628 237.466,140.292 
									"/>
				<polyline style="fill:none;stroke:#000000;stroke-miterlimit:10;" points="190.173,196.57 178.068,219.655 201.403,214.289 				
					"/>
				<line style="fill:none;stroke:#000000;stroke-miterlimit:10;" x1="321.697" y1="245.985" x2="313.96" y2="220.529"/>
				<line style="fill:none;stroke:#000000;stroke-miterlimit:10;" x1="199.486" y1="175.307" x2="192.169" y2="194.324"/>
				<line style="fill:none;stroke:#000000;stroke-miterlimit:10;" x1="189.923" y1="198.816" x2="223.365" y2="177.852"/>
				<polyline style="fill:none;stroke:#000000;stroke-miterlimit:10;" points="318.702,245.486 292.497,259.462 277.023,236.002 
					233.099,243.988 247.948,226.643 				"/>
				<polygon style="fill:none;stroke:#000000;stroke-miterlimit:10;" points="257.058,163.127 231.227,199.939 264.295,201.062 				
					"/>
				<path style="fill:none;stroke:#000000;stroke-miterlimit:10;" d="M295.991,187.086c0-0.749-14.226-24.957-14.226-24.957
					l-15.224,42.926L295.991,187.086z"/>
				<line style="fill:none;stroke:#000000;stroke-miterlimit:10;" x1="174.2" y1="168.368" x2="157.604" y2="201.686"/>
				<polyline style="fill:none;stroke:#000000;stroke-miterlimit:10;" points="174.2,168.368 192.419,201.062 156.231,202.31 				
					"/>
				<path style="fill:none;stroke:#000000;stroke-miterlimit:10;" d="M237.466,140.292l-26.33,14.101l-27.453-4.991l14.805,25.242
					l26.124,0.215l6.614,25.082c0,0-29.824,14.101-29.075,14.101s12.978,17.22,12.978,17.22l13.56-11.73l19.633,8.485l15.972-26.954
					l11.356,35.065l13.352-14.85l9.733,17.969l13.477-18.219l-17.969-30.947l27.453,11.979l-13.144-38.434l-28.035-0.499
					l0.374-19.841L237.466,140.292z"/>
				<path style="fill:none;stroke:#1D1D1B;stroke-width:2;stroke-linecap:round;stroke-miterlimit:10;" d="M340.14,189.049
					c-0.496-0.56-1.084-1.039-1.731-1.413c-0.834-0.482-1.786-0.791-2.749-0.768c-2.043,0.048-3.912,1.775-4.122,3.808
					c-0.147,1.424,0.43,2.824,1.133,4.071c0.703,1.247,1.549,2.429,2.025,3.779c0.612,1.737,0.557,3.701-0.152,5.401"/>
				<polygon style="fill:none;stroke:#000000;stroke-miterlimit:10;" points="338.418,213.541 323.443,201.561 313.96,220.529 				
					"/>
				<path style="fill:none;stroke:#1D1D1B;stroke-width:2;stroke-linecap:round;stroke-miterlimit:10;" d="M335.669,245.226
					c-1.621,0.566-3.293,0.985-4.989,1.249"/>
				<path style="fill:none;stroke:#1D1D1B;stroke-width:2;stroke-linecap:round;stroke-miterlimit:10;" d="M155.349,186.738
					c-2.938,0.25-5.774,1.557-7.873,3.628c-2.099,2.071-3.443,4.89-3.732,7.824"/>
				<path style="fill:none;stroke:#1D1D1B;stroke-width:2;stroke-linecap:round;stroke-miterlimit:10;" d="M158.598,175.355
					c1.109,0.406,2.361,0.247,3.458-0.189c1.097-0.436,2.069-1.131,3.029-1.818"/>
				<path style="fill:none;stroke:#1D1D1B;stroke-width:2;stroke-linecap:round;stroke-linejoin:round;stroke-miterlimit:10;" d="
					M216.071,130.381c-2.536,2.73-4.479,6.009-5.655,9.546"/>
				<path style="fill:none;stroke:#1D1D1B;stroke-width:2;stroke-linecap:round;stroke-linejoin:round;stroke-miterlimit:10;" d="
					M193.292,137.921c-0.695,1.931-1.32,3.888-1.872,5.865"/>
				<path style="fill:none;stroke:#1D1D1B;stroke-width:2;stroke-linecap:round;stroke-linejoin:round;stroke-miterlimit:10;" d="
					M285.056,137.418c0.163,2.682-0.342,5.403-1.456,7.849"/>
				<path style="fill:none;stroke:#1D1D1B;stroke-width:2;stroke-linecap:round;stroke-miterlimit:10;" d="M322.33,159.856
					c-4.237-1.055-8.717,0.305-12.616,2.268"/>
				<path style="fill:none;stroke:#1D1D1B;stroke-width:2;stroke-linecap:round;stroke-miterlimit:10;" d="M321.018,249.208
					c1.263,3.665,0.774,7.892-1.292,11.171c-2.066,3.28-5.668,5.546-9.519,5.989"/>
				<g>
					<circle style="fill:#FF6363;" cx="308.552" cy="163.626" r="5.99"/>
					
						<ellipse transform="matrix(0.9139 -0.4059 0.4059 0.9139 -44.0868 118.3927)" style="fill:#EEE8FF;" cx="257.058" cy="163.127" rx="8.485" ry="8.485"/>
					<path style="fill:#EEE8FF;" d="M286.257,143.286c0,2.963-2.402,5.366-5.366,5.366c-2.963,0-5.366-2.402-5.366-5.366
						c0-2.964,2.402-5.366,5.366-5.366C283.855,137.921,286.257,140.323,286.257,143.286z"/>
					<path style="fill:#C0A4FC;" d="M286.257,162.254c0,3.101-2.514,5.615-5.615,5.615c-3.101,0-5.615-2.514-5.615-5.615
						c0-3.101,2.514-5.615,5.615-5.615C283.743,156.638,286.257,159.152,286.257,162.254z"/>
					
						<ellipse transform="matrix(0.2305 -0.9731 0.9731 0.2305 -74.9769 308.5617)" style="fill:#EEE8FF;" cx="157.604" cy="201.686" rx="7.362" ry="7.362"/>
					<path style="fill:#EEE8FF;" d="M178.692,168.368c0,2.481-2.011,4.492-4.492,4.492c-2.481,0-4.492-2.011-4.492-4.492
						c0-2.481,2.011-4.492,4.492-4.492C176.681,163.876,178.692,165.887,178.692,168.368z"/>
					
						<ellipse transform="matrix(0.8929 -0.4503 0.4503 0.8929 -68.5349 107.0099)" style="fill:#EEE8FF;" cx="190.672" cy="197.568" rx="9.484" ry="9.484"/>
					<circle style="fill:#C0A4FC;" cx="295.741" cy="189.332" r="9.484"/>
					<circle style="fill:#FF6363;" cx="178.068" cy="219.655" r="4.118"/>
					<circle style="fill:#EEE8FF;" cx="209.514" cy="154.767" r="10.357"/>
					<path style="fill:#C0A4FC;" d="M204.741,174.818c0,3.059-2.48,5.539-5.539,5.539s-5.539-2.48-5.539-5.539
						c0-3.059,2.48-5.539,5.539-5.539S204.741,171.759,204.741,174.818z"/>
					<path style="fill:#FF6363;" d="M235.495,175.077c0.473,6.276-4.232,11.747-10.508,12.22
						c-6.276,0.473-11.747-4.232-12.22-10.508c-0.473-6.276,4.232-11.747,10.508-12.22
						C229.551,164.096,235.022,168.801,235.495,175.077z"/>
					<circle style="fill:#C0A4FC;" cx="215.13" cy="231.26" r="4.243"/>
					<path style="fill:#EEE8FF;" d="M235.125,219.653c0,3.164-2.565,5.729-5.729,5.729c-3.164,0-5.729-2.565-5.729-5.729
						c0-3.164,2.565-5.729,5.729-5.729C232.56,213.925,235.125,216.489,235.125,219.653z"/>
					<circle style="fill:#FF6363;" cx="265.293" cy="202.559" r="14.972"/>
					<path style="fill:#EEE8FF;" d="M253.314,226.643c0,2.963-2.402,5.366-5.366,5.366c-2.964,0-5.366-2.402-5.366-5.366
						c0-2.964,2.402-5.366,5.366-5.366C250.912,221.277,253.314,223.68,253.314,226.643z"/>
					<path style="fill:#EEE8FF;" d="M282.763,236.127c0,3.928-3.185,7.113-7.113,7.113c-3.928,0-7.113-3.185-7.113-7.113
						c0-3.928,3.184-7.113,7.113-7.113C279.579,229.014,282.763,232.199,282.763,236.127z"/>
					<circle style="fill:#FF6363;" cx="290.625" cy="221.152" r="4.367"/>
					<circle style="fill:#EEE8FF;" cx="231.227" cy="199.939" r="8.755"/>
					<circle style="fill:#EEE8FF;" cx="321.697" cy="202.06" r="6.988"/>
					<path style="fill:#FF6363;" d="M319.281,220.404c0,3.421-2.774,6.195-6.195,6.195c-3.421,0-6.195-2.774-6.195-6.195
						c0-3.421,2.774-6.195,6.195-6.195C316.508,214.209,319.281,216.982,319.281,220.404z"/>
					<path style="fill:#EEE8FF;" d="M344.158,213.541c0,3.17-2.57,5.74-5.74,5.74s-5.74-2.57-5.74-5.74s2.57-5.74,5.74-5.74
						S344.158,210.37,344.158,213.541z"/>
					<circle style="fill:#EEE8FF;" cx="320.074" cy="246.11" r="7.113"/>
					<circle style="fill:#EEE8FF;" cx="298.736" cy="239.246" r="3.494"/>
					<circle style="fill:#FF6363;" cx="292.247" cy="257.964" r="8.485"/>
					
						<ellipse transform="matrix(0.7071 -0.7071 0.7071 0.7071 -29.6488 209.0044)" style="fill:#FF6363;" cx="237.466" cy="140.292" rx="7.362" ry="7.362"/>
					<path style="fill:#FF6363;" d="M190.422,150.649c0,3.446-2.793,6.239-6.239,6.239c-3.446,0-6.239-2.793-6.239-6.239
						c0-3.446,2.793-6.239,6.239-6.239C187.629,144.409,190.422,147.203,190.422,150.649z"/>
					<path style="fill:#FF6363;" d="M207.77,214.04c0,3.103-2.515,5.618-5.618,5.618c-3.103,0-5.618-2.515-5.618-5.618
						c0-3.103,2.515-5.618,5.618-5.618C205.255,208.422,207.77,210.937,207.77,214.04z"/>
					<circle style="fill:#EEE8FF;" cx="198.908" cy="234.754" r="7.737"/>
					
						<ellipse transform="matrix(0.7071 -0.7071 0.7071 0.7071 -103.2883 235.3719)" style="fill:#FF6363;" cx="232.475" cy="242.366" rx="8.111" ry="8.111"/>
				</g>
				<path style="fill:none;stroke:#1D1D1B;stroke-width:2;stroke-linecap:round;stroke-linejoin:round;stroke-miterlimit:10;" d="
					M261.632,130.599c-0.187,2.026-0.572,4.034-1.146,5.986"/>
				<path style="fill:none;stroke:#1D1D1B;stroke-width:2;stroke-linecap:round;stroke-linejoin:round;stroke-miterlimit:10;" d="
					M245.371,125.928c1.469,1.12,2.854,2.35,4.139,3.676"/>
				<path style="fill:none;stroke:#1D1D1B;stroke-width:2;stroke-linecap:round;stroke-linejoin:round;stroke-miterlimit:10;" d="
					M160.197,227.827c-0.039-1.725,0.096-3.455,0.402-5.153"/>
				<path style="fill:none;stroke:#1D1D1B;stroke-width:2;stroke-linecap:round;stroke-linejoin:round;stroke-miterlimit:10;" d="
					M173.268,231.516c1.682,0.985,3.834,0.437,5.61-0.367c1.805-0.818,3.502-1.875,5.03-3.137"/>
				<path style="fill:none;stroke:#1D1D1B;stroke-width:2;stroke-linecap:round;stroke-miterlimit:10;" d="M167.451,209.469
					c1.718,1.459,2.443,3.844,2.336,6.095c-0.107,2.251-0.946,4.402-1.915,6.437"/>
				<path style="fill:none;stroke:#1D1D1B;stroke-width:2;stroke-linecap:round;stroke-miterlimit:10;" d="M146.591,211.694
					c-0.615,2.609-0.021,5.477,1.579,7.626"/>
				<path style="fill:none;stroke:#1D1D1B;stroke-width:2;stroke-linecap:round;stroke-miterlimit:10;" d="M340.453,226.296
					c-1.925-0.638-7.799-2.535-9.637-3.392"/>
				<path style="fill:none;stroke:#1D1D1B;stroke-width:2;stroke-linecap:round;stroke-miterlimit:10;" d="M304.129,147.433
					c-0.972-1.02-2.665-0.459-3.928,0.166c-3.17,1.567-6.34,3.134-9.51,4.701"/>
			</g>
		</g>
		<g>
			<g>
				<path style="fill:#7A5CE0;" d="M301.433,415.774c-1.904-1.524-2.211-4.303-0.687-6.207c1.524-1.904,4.303-2.211,6.207-0.687
					c0.159,0.127,0.29,0.275,0.426,0.418c0.878-1.555,1.587-3.172,2.127-4.827c-0.216-0.001-0.432,0-0.652-0.033
					c-2.411-0.368-4.067-2.621-3.698-5.032c0.368-2.411,2.621-4.067,5.032-3.698c0.221,0.034,0.428,0.1,0.635,0.164
					c-0.021-1.775-0.217-3.544-0.585-5.281c-0.2,0.117-0.402,0.233-0.625,0.319c-2.272,0.887-4.833-0.237-5.719-2.509
					c-0.886-2.272,0.237-4.833,2.509-5.719c0.222-0.086,0.447-0.138,0.672-0.187c-0.9-1.515-1.958-2.955-3.173-4.294
					c-0.117,0.21-0.241,0.419-0.397,0.613c-1.524,1.904-4.303,2.211-6.207,0.686c-1.904-1.524-2.211-4.303-0.687-6.207
					c0.149-0.186,0.319-0.343,0.49-0.499c-1.577-0.882-3.217-1.589-4.895-2.124c0.003,0.239,0,0.479-0.037,0.723
					c-0.368,2.411-2.621,4.067-5.032,3.698c-2.411-0.368-4.066-2.621-3.698-5.032c0.035-0.227,0.101-0.44,0.168-0.652
					c-1.775,0.031-3.542,0.241-5.276,0.62c0.113,0.195,0.225,0.39,0.31,0.606c0.887,2.272-0.237,4.832-2.509,5.719
					c-2.272,0.886-4.832-0.237-5.719-2.509c-0.078-0.199-0.121-0.402-0.168-0.604c-1.491,0.899-2.908,1.953-4.227,3.16
					c0.179,0.106,0.36,0.208,0.527,0.341c1.904,1.524,2.211,4.303,0.686,6.207c-1.524,1.904-4.303,2.211-6.207,0.686
					c-0.147-0.118-0.267-0.255-0.394-0.387c-0.856,1.549-1.544,3.156-2.067,4.801c0.186,0.004,0.371,0,0.56,0.029
					c2.411,0.369,4.067,2.621,3.698,5.032c-0.368,2.411-2.621,4.066-5.032,3.698c-0.166-0.025-0.32-0.081-0.478-0.123
					c0.035,1.732,0.238,3.458,0.604,5.151c0.148-0.079,0.289-0.167,0.45-0.23c2.272-0.886,4.832,0.237,5.719,2.509
					c0.887,2.272-0.237,4.832-2.509,5.719c-0.148,0.058-0.298,0.084-0.448,0.124c0.879,1.462,1.909,2.851,3.083,4.147
					c0.086-0.135,0.159-0.276,0.261-0.404c1.524-1.903,4.303-2.211,6.207-0.686c1.904,1.524,2.211,4.303,0.687,6.206
					c-0.096,0.12-0.21,0.215-0.315,0.322c1.526,0.852,3.111,1.542,4.733,2.069c0.007-0.163,0-0.325,0.025-0.49
					c0.368-2.411,2.621-4.066,5.032-3.698c2.411,0.368,4.067,2.621,3.698,5.032c-0.025,0.162-0.078,0.31-0.12,0.465
					c1.733-0.024,3.461-0.216,5.157-0.572c-0.082-0.154-0.174-0.301-0.239-0.468c-0.886-2.272,0.237-4.833,2.509-5.719
					c2.272-0.887,4.832,0.237,5.719,2.509c0.066,0.17,0.099,0.343,0.144,0.515c1.485-0.88,2.897-1.913,4.214-3.096
					C301.757,415.991,301.588,415.899,301.433,415.774z M294.691,405.572c-5.194,5.865-14.191,6.411-20.057,1.216
					c-5.865-5.194-6.411-14.191-1.216-20.056c5.194-5.865,14.192-6.411,20.057-1.217
					C299.34,390.709,299.885,399.706,294.691,405.572z"/>
				
					<ellipse transform="matrix(0.9982 -0.06 0.06 0.9982 -23.2628 17.7614)" style="fill:none;stroke:#000000;stroke-miterlimit:10;" cx="284.054" cy="396.151" rx="11.879" ry="11.879"/>
			</g>
			<g>
				<path style="fill:#7A5CE0;" d="M216.476,339.763c-0.168-0.135-0.305-0.292-0.451-0.443c-0.979,1.772-1.767,3.613-2.366,5.496
					c0.213,0.005,0.425-0.001,0.641,0.033c2.759,0.421,4.655,3,4.233,5.76c-0.421,2.759-3,4.655-5.76,4.233
					c-0.191-0.029-0.366-0.092-0.548-0.141c0.04,1.982,0.272,3.957,0.691,5.896c0.17-0.09,0.331-0.191,0.515-0.263
					c2.6-1.015,5.531,0.271,6.546,2.871c1.014,2.601-0.271,5.531-2.872,6.546c-0.169,0.066-0.341,0.096-0.512,0.142
					c1.006,1.673,2.185,3.263,3.529,4.747c0.098-0.155,0.182-0.316,0.299-0.462c1.745-2.179,4.926-2.531,7.104-0.786
					c2.179,1.745,2.531,4.926,0.786,7.104c-0.11,0.137-0.24,0.246-0.361,0.368c1.747,0.975,3.561,1.765,5.417,2.369
					c0.008-0.187,0-0.372,0.029-0.56c0.422-2.76,3-4.655,5.76-4.233c2.759,0.422,4.655,3,4.233,5.76
					c-0.028,0.185-0.09,0.355-0.137,0.532c1.984-0.027,3.961-0.247,5.903-0.654c-0.095-0.177-0.2-0.345-0.274-0.536
					c-1.014-2.6,0.271-5.531,2.872-6.546c2.601-1.014,5.532,0.271,6.546,2.872c0.076,0.194,0.114,0.393,0.164,0.59
					c1.7-1.007,3.316-2.189,4.824-3.543c-0.19-0.114-0.383-0.22-0.56-0.363c-2.179-1.745-2.531-4.926-0.786-7.105
					c1.745-2.179,4.926-2.531,7.105-0.786c0.182,0.145,0.331,0.314,0.488,0.478c1.006-1.78,1.816-3.631,2.435-5.526
					c-0.247-0.001-0.495,0-0.746-0.038c-2.76-0.422-4.655-3-4.233-5.76c0.422-2.759,3-4.655,5.76-4.233
					c0.253,0.038,0.49,0.114,0.727,0.187c-0.023-2.032-0.248-4.057-0.67-6.045c-0.229,0.134-0.46,0.266-0.715,0.366
					c-2.601,1.015-5.531-0.271-6.546-2.871c-1.015-2.601,0.271-5.531,2.871-6.546c0.254-0.099,0.512-0.158,0.769-0.214
					c-1.03-1.734-2.24-3.382-3.631-4.914c-0.134,0.241-0.276,0.479-0.454,0.702c-1.745,2.179-4.926,2.531-7.105,0.786
					c-2.179-1.745-2.531-4.926-0.786-7.104c0.171-0.213,0.365-0.393,0.56-0.571c-1.805-1.01-3.683-1.819-5.603-2.432
					c0.003,0.273,0,0.548-0.042,0.827c-0.422,2.759-3.001,4.655-5.76,4.233c-2.759-0.421-4.654-3-4.233-5.76
					c0.04-0.259,0.116-0.503,0.192-0.746c-2.031,0.036-4.054,0.276-6.039,0.71c0.129,0.223,0.258,0.447,0.355,0.694
					c1.015,2.601-0.271,5.531-2.872,6.546c-2.6,1.015-5.531-0.271-6.546-2.871c-0.089-0.228-0.138-0.46-0.193-0.691
					c-1.707,1.029-3.329,2.236-4.838,3.617c0.205,0.121,0.412,0.237,0.603,0.391c2.179,1.745,2.531,4.926,0.786,7.105
					C221.836,341.156,218.655,341.508,216.476,339.763z M249.555,339.879c7.843,3.697,11.215,13.086,7.518,20.929
					c-3.697,7.843-13.085,11.216-20.928,7.519c-7.843-3.697-11.216-13.086-7.519-20.928
					C232.323,339.556,241.712,336.182,249.555,339.879z"/>
				<path style="fill:none;stroke:#000000;stroke-miterlimit:10;" d="M252.907,363.07c-4.898,5.53-13.351,6.043-18.881,1.145
					c-5.53-4.898-6.043-13.351-1.145-18.881c4.898-5.53,13.351-6.043,18.881-1.145S257.804,357.54,252.907,363.07z"/>
			</g>
		</g>
		<path style="fill:none;stroke:#C0A4FC;stroke-width:2;stroke-linecap:round;stroke-miterlimit:10;" d="M140.341,319.458v-17.767
			c0-3.68-2.983-6.663-6.663-6.663h-15.293h-13.795c-3.925,0-7.107-3.182-7.107-7.107v-82.575"/>
		<g>
			<g>
				<rect x="61" y="323.934" style="fill:#7A5CE0;" width="105.823" height="26.01"/>
				<rect x="68.229" y="339.316" style="fill:#1D1D1B;" width="71.127" height="1.398"/>
				<rect x="68.229" y="332.883" style="fill:#E5DBFF;" width="71.127" height="3.915"/>
				<rect x="149.186" y="339.316" style="fill:#1D1D1B;" width="9.085" height="1.398"/>
				<rect x="149.186" y="332.883" style="fill:#E5DBFF;" width="9.085" height="3.915"/>
				<rect x="63.512" y="325.553" style="fill:none;stroke:#000000;stroke-miterlimit:10;" width="106.66" height="26.01"/>
			</g>
			<g>
				<rect x="61" y="352.741" style="fill:#C0A4FC;" width="105.823" height="26.01"/>
				<rect x="68.229" y="368.123" style="fill:#1D1D1B;" width="71.127" height="1.398"/>
				<rect x="68.229" y="361.69" style="fill:#E5DBFF;" width="71.127" height="3.915"/>
				<rect x="149.186" y="368.123" style="fill:#1D1D1B;" width="9.085" height="1.398"/>
				<rect x="149.186" y="361.69" style="fill:#E5DBFF;" width="9.085" height="3.915"/>
				<rect x="63.512" y="354.36" style="fill:none;stroke:#000000;stroke-miterlimit:10;" width="106.66" height="26.01"/>
			</g>
			<g>
				<rect x="61" y="381.547" style="fill:#7A5CE0;" width="105.823" height="26.01"/>
				<rect x="68.229" y="396.93" style="fill:#1D1D1B;" width="71.127" height="1.398"/>
				<rect x="68.229" y="390.497" style="fill:#E5DBFF;" width="71.127" height="3.915"/>
				<rect x="149.186" y="396.93" style="fill:#1D1D1B;" width="9.085" height="1.398"/>
				<rect x="149.186" y="390.497" style="fill:#E5DBFF;" width="9.085" height="3.915"/>
				<rect x="63.512" y="383.167" style="fill:none;stroke:#000000;stroke-miterlimit:10;" width="106.66" height="26.01"/>
			</g>
			<g>
				<rect x="61" y="410.354" style="fill:#C0A4FC;" width="105.823" height="26.01"/>
				<rect x="68.229" y="425.737" style="fill:#1D1D1B;" width="71.127" height="1.398"/>
				<rect x="68.229" y="419.304" style="fill:#E5DBFF;" width="71.127" height="3.915"/>
				<rect x="149.186" y="425.737" style="fill:#1D1D1B;" width="9.085" height="1.398"/>
				<rect x="149.186" y="419.304" style="fill:#E5DBFF;" width="9.085" height="3.915"/>
				<rect x="63.512" y="411.974" style="fill:none;stroke:#000000;stroke-miterlimit:10;" width="106.66" height="26.01"/>
			</g>
		</g>
		<g>
			<g>
				<g>
					<path style="fill:none;stroke:#000000;stroke-miterlimit:10;" d="M138.804,117.423c-10.947,0-19.821-9.888-19.821-9.888
						s8.874-9.888,19.821-9.888c10.947,0,19.821,9.888,19.821,9.888S149.751,117.423,138.804,117.423z"/>
					<path style="fill:#7A5CE0;" d="M132.774,100.589c3.284-3.843,8.609-3.843,11.893,0c3.284,3.843,3.284,10.073,0,13.916
						c-3.284,3.843-8.609,3.843-11.893,0C129.49,110.662,129.49,104.432,132.774,100.589z"/>
				</g>
			</g>
			<g>
				<g>
					<path style="fill:none;stroke:#000000;stroke-miterlimit:10;" d="M188.439,104.744c-10.947,0-19.821-9.888-19.821-9.888
						s8.874-9.888,19.821-9.888s19.821,9.888,19.821,9.888S199.385,104.744,188.439,104.744z"/>
					<ellipse style="fill:#7A5CE0;" cx="188.356" cy="94.869" rx="8.409" ry="9.84"/>
				</g>
			</g>
		</g>
		<path style="fill:none;stroke:#C0A4FC;stroke-width:2;stroke-miterlimit:10;" d="M346.253,349.057h-33.706
			c-2.877,0-5.21-1.934-5.21-4.319v-45.914"/>
		<g>
			<path style="fill:#FF6363;" d="M434.57,322.001h-87.004c-3.434,0-6.243-2.733-6.338-6.166l-0.593-21.556
				c-0.098-3.568,2.768-6.514,6.337-6.514h87.597c3.501,0,6.34,2.839,6.34,6.34v21.556
				C440.91,319.163,438.072,322.001,434.57,322.001z"/>
			<g>
				<g>
					<path style="fill:none;stroke:#000000;stroke-linecap:round;stroke-miterlimit:10;" d="M419.972,304.643
						c-0.392,3.494-3.557,6.403-6.922,6.362c-3.365-0.041-6.464-3.027-6.777-6.531c-0.117-1.315,0.266-2.866,1.427-3.387
						c1.161-0.521,2.578,0.336,3.066,1.555c0.489,1.218,0.24,2.633-0.262,3.846c-1.526,3.688-5.49,6.097-9.31,5.659
						c-3.821-0.438-7.191-3.686-7.918-7.632c-0.248-1.35-0.105-2.977,0.982-3.751c1.347-0.959,3.36,0.172,3.83,1.803
						c0.469,1.632-0.214,3.402-1.199,4.76c-2.05,2.826-5.526,4.27-8.87,4.119c-1.501-0.068-3.466-0.433-4.714-1.337
						c-1.832-1.327-3.664-5.592-2.225-7.736c0.284-0.423,0.744-0.755,1.238-0.733c0.337,0.014,0.652,0.189,0.908,0.419
						c0.656,0.59,0.953,1.527,0.978,2.431c0.052,1.866-0.995,3.952-2.173,5.319c-2.191,2.545-5.997,3.305-9.017,1.978
						c-3.02-1.327-5.129-4.556-5.426-7.966c-0.111-1.278,0.412-2.982,1.638-2.916c0.904,0.048,1.441,1.08,1.64,2.003
						c0.575,2.664-0.239,5.611-2.085,7.544c-1.845,1.933-4.662,2.791-7.211,2.196"/>
				</g>
			</g>
			<g>
				<path style="fill:#FF6363;" d="M347.412,329.119h86.719c3.23,0,5.848,2.525,5.848,5.64v14.863c0,3.061-2.532,5.564-5.705,5.638
					l-85.713,2.009c-3.153,0.074-5.799-2.278-5.98-5.315l-1.005-16.873C341.382,331.846,344.051,329.119,347.412,329.119z"/>
				<path style="fill:none;stroke:#000000;stroke-linecap:round;stroke-miterlimit:10;" d="M356.23,347.158
					c0.424-3.078,2.707-5.825,5.656-6.805c2.949-0.979,6.422-0.144,8.603,2.069c1.024,1.039,1.795,2.539,1.372,3.936
					c-0.423,1.397-2.5,2.162-3.415,1.026c-0.521-0.647-0.467-1.583-0.249-2.385c0.693-2.55,2.867-4.639,5.442-5.229
					c2.576-0.591,5.442,0.342,7.177,2.335c0.743,0.854,1.297,2.06,0.854,3.102c-0.443,1.042-2.264,1.276-2.61,0.198
					c-0.176-0.549,0.097-1.136,0.403-1.625c3.203-5.123,11.24-6.291,15.77-2.293c1.009,0.891,1.894,2.161,1.657,3.487
					c-0.237,1.325-2.165,2.192-2.996,1.133c-0.759-0.966,0.035-2.366,0.909-3.23c2.079-2.056,4.74-3.518,7.59-4.171
					c2.322-0.532,4.933-0.478,6.877,0.9c1.943,1.378,2.813,4.375,1.336,6.245c-0.243,0.308-0.555,0.584-0.936,0.675
					c-1.477,0.35-1.989-1.998-1.362-3.381c2.252-4.971,10.01-6.166,13.653-2.102"/>
			</g>
			<g>
				<path style="fill:#FF6363;" d="M342.033,370.693v23.405c0,3.099,2.607,5.618,5.838,5.64l85.72,0.571
					c3.308,0.022,5.983-2.577,5.919-5.75l-0.449-21.973c-0.062-3.018-2.589-5.454-5.734-5.528l-85.271-2.002
					C344.753,364.977,342.033,367.524,342.033,370.693z"/>
				<path style="fill:none;stroke:#000000;stroke-linecap:round;stroke-miterlimit:10;" d="M356.328,377.284
					c-0.792,4.261,2.639,8.821,6.952,9.242c4.314,0.421,8.561-3.39,8.608-7.724c0.005-0.432-0.029-0.874-0.198-1.271
					c-0.711-1.663-3.492-1.358-4.348,0.236c-0.856,1.594-0.2,3.622,0.928,5.036c1.979,2.482,5.399,3.721,8.508,3.083
					s5.765-3.123,6.608-6.183c0.28-1.016,0.111-2.459-0.928-2.635c-0.858-0.145-1.523,0.756-1.779,1.588
					c-1.156,3.751,1.859,8.017,5.723,8.705c3.864,0.688,7.886-1.802,9.553-5.354c0.551-1.174,0.947-4.465-1.307-3.956
					c-2.542,0.574-1.146,5.121-0.039,6.391c1.679,1.926,4.413,2.641,6.965,2.519c2.457-0.117,4.967-0.984,6.619-2.807
					c1.031-1.138,3.162-5.912,0.576-6.403c-2.552-0.485-2.864,3.437-2.137,5.09c2.51,5.704,10.584,4.97,13.78,0.385
					c0.625-0.896,1.48-2.919,0.96-4.034c-0.783-1.676-2.689-0.751-3.299,0.386c-0.98,1.823-0.952,3.966,0.239,5.68
					c1.816,2.613,5.634,3.595,8.485,2.18"/>
			</g>
			<path style="fill:#FF6363;" d="M412.688,293.845c0.35-7.123,3.136-13.958,6.954-19.982c3.818-6.024,8.65-11.329,13.495-16.563
				c-6.443,10.287-9.143,22.864-7.49,34.89"/>
			<path style="fill:#FF6363;" d="M355.054,393.061c3.227,11.017,1.749,23.329-3.994,33.27c9.474-7.247,15.584-18.722,16.308-30.628
				"/>
		</g>
		<path style="fill:none;stroke:#C0A4FC;stroke-width:2;stroke-linecap:round;stroke-miterlimit:10;" d="M411.278,123.843v32.1
			c0,4.637-3.759,8.396-8.396,8.396H331.68"/>
		<path style="fill:none;stroke:#C0A4FC;stroke-width:2;stroke-linecap:round;stroke-miterlimit:10;" d="M387.632,121.975v18.427
			c0,3.97,3.219,7.189,7.189,7.189h23.061c3.97,0,7.189-3.219,7.189-7.189v-33.678"/>
		<g>
			<path style="fill:#7A5CE0;" d="M53.629,128.545v-13.297l0,0c-0.551-0.152-1.126,0.075-1.461,0.551
				c-1.104,1.57-2.896,2.591-4.921,2.585c-3.18-0.009-5.87-2.638-6.038-5.914c-0.185-3.607,2.597-6.592,6.054-6.592
				c2.019,0,3.803,1.019,4.904,2.585c0.335,0.477,0.91,0.704,1.462,0.552V95.717h31.83v13.297c0.551,0.152,1.126-0.075,1.462-0.552
				c1.101-1.565,2.886-2.585,4.904-2.585c3.457,0,6.239,2.985,6.054,6.592c-0.168,3.275-2.857,5.905-6.038,5.914
				c-2.025,0.006-3.817-1.015-4.921-2.585c-0.335-0.476-0.91-0.703-1.461-0.551l0,0v13.297H53.629z"/>
			<path style="fill:#FF6363;" d="M83.706,148.474c-1.19,1.665-3.167,2.712-5.38,2.572c-3.108-0.196-5.639-2.824-5.765-5.98
				c-0.143-3.572,2.669-6.513,6.159-6.513c2.052,0,3.867,1.019,4.986,2.585c0.341,0.476,0.925,0.704,1.486,0.552v-13.298H72.441
				c-0.15-0.569,0.074-1.162,0.544-1.507c1.543-1.136,2.548-2.976,2.548-5.058c0-3.566-2.942-6.434-6.498-6.244
				c-3.229,0.173-5.821,2.947-5.83,6.227c-0.006,2.089,1.001,3.937,2.548,5.076c0.47,0.345,0.693,0.939,0.544,1.507H53.188v13.298
				c0.56,0.152,1.145-0.075,1.486-0.551c1.122-1.57,2.944-2.591,5.003-2.585c3.233,0.009,5.968,2.639,6.138,5.914
				c0.188,3.607-2.64,6.592-6.155,6.592c-2.052,0-3.867-1.02-4.987-2.585c-0.341-0.476-0.925-0.704-1.486-0.552v13.298h32.004
				v-13.298C84.632,147.771,84.047,147.998,83.706,148.474z"/>
			<path style="fill:#7A5CE0;" d="M79.828,177.682c2.052,0,3.867,1.019,4.986,2.585c0.341,0.476,0.925,0.704,1.486,0.552v-13.298
				h13.109l0,0c0-0.566-0.344-1.336-0.78-1.69c-2.452-1.992-3.373-5.838-0.667-9.454c5.085-3.932,10.682-0.34,10.682,4.578
				c0,2.082-1.005,3.923-2.548,5.058c-0.47,0.346-0.694,0.939-0.544,1.507h13.109v32.828H86.3v-13.297
				c-0.561-0.152-1.145,0.075-1.486,0.552c-1.144,1.599-3.013,2.629-5.12,2.584c-3.232-0.07-5.937-2.794-6.028-6.072
				C73.569,180.579,76.365,177.682,79.828,177.682z"/>
		</g>
		<path style="fill:#C0A4FC;" d="M102.657,202.587c0,2.775-2.249,5.024-5.024,5.024c-2.775,0-5.024-2.249-5.024-5.024
			c0-2.775,2.249-5.024,5.024-5.024C100.408,197.563,102.657,199.812,102.657,202.587z"/>
		<path style="fill:#C0A4FC;" d="M122.69,321.4c0,2.775-2.249,5.024-5.024,5.024c-2.775,0-5.024-2.249-5.024-5.024
			s2.249-5.024,5.024-5.024C120.441,316.375,122.69,318.625,122.69,321.4z"/>
		<path style="fill:#C0A4FC;" d="M144.774,321.4c0,2.775-2.249,5.024-5.024,5.024s-5.024-2.249-5.024-5.024s2.249-5.024,5.024-5.024
			S144.774,318.625,144.774,321.4z"/>
		<path style="fill:#C0A4FC;" d="M338.371,298.801c0,2.775-2.249,5.024-5.024,5.024c-2.775,0-5.024-2.249-5.024-5.024
			c0-2.775,2.249-5.024,5.024-5.024C336.121,293.777,338.371,296.026,338.371,298.801z"/>
		<path style="fill:#C0A4FC;" d="M343.38,349.796c0,2.775-2.249,5.024-5.024,5.024c-2.775,0-5.024-2.249-5.024-5.024
			c0-2.775,2.249-5.024,5.024-5.024C341.131,344.772,343.38,347.021,343.38,349.796z"/>
		<path style="fill:#C0A4FC;" d="M348.39,386.525c0,2.775-2.249,5.024-5.024,5.024c-2.775,0-5.024-2.249-5.024-5.024
			c0-2.775,2.249-5.024,5.024-5.024C346.14,381.501,348.39,383.751,348.39,386.525z"/>
		<path style="fill:#C0A4FC;" d="M392.656,121.975c0,2.775-2.249,5.024-5.024,5.024c-2.775,0-5.024-2.249-5.024-5.024
			c0-2.775,2.249-5.024,5.024-5.024C390.407,116.951,392.656,119.201,392.656,121.975z"/>
		<path style="fill:#C0A4FC;" d="M416.302,121.975c0,2.775-2.249,5.024-5.024,5.024c-2.775,0-5.024-2.249-5.024-5.024
			c0-2.775,2.249-5.024,5.024-5.024C414.052,116.951,416.302,119.201,416.302,121.975z"/>
		<path style="fill:#C0A4FC;" d="M431.388,105.808c0,2.775-2.249,5.024-5.024,5.024c-2.775,0-5.024-2.249-5.024-5.024
			c0-2.775,2.249-5.024,5.024-5.024C429.139,100.784,431.388,103.033,431.388,105.808z"/>
		<g>
			<g>
				<rect x="384.311" y="204.781" style="fill:#FF6363;" width="4.739" height="33.271"/>
				<rect x="393.357" y="220.145" style="fill:#FF6363;" width="4.739" height="17.907"/>
				<rect x="402.404" y="208.028" style="fill:#FF6363;" width="4.739" height="30.025"/>
				<rect x="411.45" y="195.004" style="fill:#FF6363;" width="4.739" height="43.048"/>
				<rect x="420.497" y="216.635" style="fill:#FF6363;" width="4.739" height="21.417"/>
			</g>
			<polyline style="fill:none;stroke:#1D1D1B;stroke-miterlimit:10;" points="434.679,237.626 379.472,237.626 379.472,197.094 			
				"/>
		</g>
		<g>
			
				<line style="fill:none;stroke:#1C1C1B;stroke-linecap:round;stroke-linejoin:round;stroke-miterlimit:10;" x1="203.395" y1="303.629" x2="194.292" y2="312.732"/>
			
				<line style="fill:none;stroke:#1C1C1B;stroke-linecap:round;stroke-linejoin:round;stroke-miterlimit:10;" x1="210.17" y1="303.629" x2="201.066" y2="312.732"/>
			
				<line style="fill:none;stroke:#1C1C1B;stroke-linecap:round;stroke-linejoin:round;stroke-miterlimit:10;" x1="225.119" y1="303.629" x2="216.015" y2="312.732"/>
		</g>
		<g>
			<g>
				<polyline style="fill:none;stroke:#1C1C1B;stroke-linecap:round;stroke-linejoin:round;stroke-miterlimit:10;" points="
					375.624,258.41 384.169,266.298 375.624,274.186 				"/>
				<polyline style="fill:none;stroke:#1C1C1B;stroke-linecap:round;stroke-linejoin:round;stroke-miterlimit:10;" points="
					369.852,258.41 378.397,266.298 369.852,274.186 				"/>
			</g>
			<path style="fill:none;stroke:#1C1C1B;stroke-linecap:round;stroke-linejoin:round;stroke-miterlimit:10;" d="M358.575,265.605
				c0,1.806-1.464,3.271-3.271,3.271c-1.806,0-3.271-1.464-3.271-3.271c0-1.806,1.464-3.271,3.271-3.271
				C357.111,262.335,358.575,263.799,358.575,265.605z"/>
			
				<line style="fill:none;stroke:#1C1C1B;stroke-linecap:round;stroke-linejoin:round;stroke-miterlimit:10;" x1="363.479" y1="266.052" x2="373.085" y2="266.052"/>
		</g>
		<g>
			<g>
				<polyline style="fill:none;stroke:#1C1C1B;stroke-linecap:round;stroke-linejoin:round;stroke-miterlimit:10;" points="
					72.95,242.864 65.138,250.075 72.95,257.287 				"/>
				<polyline style="fill:none;stroke:#1C1C1B;stroke-linecap:round;stroke-linejoin:round;stroke-miterlimit:10;" points="
					78.226,242.864 70.414,250.075 78.226,257.287 				"/>
			</g>
			<g>
				<polyline style="fill:none;stroke:#1C1C1B;stroke-linecap:round;stroke-linejoin:round;stroke-miterlimit:10;" points="
					116.005,242.864 123.803,250.075 116.005,257.287 				"/>
			</g>
			<path style="fill:none;stroke:#1C1C1B;stroke-linecap:round;stroke-linejoin:round;stroke-miterlimit:10;" d="M84.449,250.042
				c0,1.632-1.323,2.956-2.956,2.956c-1.632,0-2.955-1.323-2.955-2.956c0-1.632,1.323-2.955,2.955-2.955
				C83.125,247.086,84.449,248.41,84.449,250.042z"/>
			
				<line style="fill:none;stroke:#1C1C1B;stroke-linecap:round;stroke-linejoin:round;stroke-miterlimit:10;" x1="89.587" y1="250.042" x2="101.163" y2="250.042"/>
			
				<line style="fill:none;stroke:#1C1C1B;stroke-linecap:round;stroke-linejoin:round;stroke-miterlimit:10;" x1="106.089" y1="250.042" x2="112.986" y2="250.042"/>
		</g>
		<g>
			<path style="fill:none;stroke:#1C1C1B;stroke-linecap:round;stroke-linejoin:round;stroke-miterlimit:10;" d="M297.543,86.741
				c0,1.585-1.285,2.869-2.869,2.869c-1.585,0-2.869-1.285-2.869-2.869s1.285-2.869,2.869-2.869
				C296.258,83.872,297.543,85.156,297.543,86.741z"/>
			
				<line style="fill:none;stroke:#1C1C1B;stroke-linecap:round;stroke-linejoin:round;stroke-miterlimit:10;" x1="251.403" y1="79.35" x2="241.838" y2="91.305"/>
			
				<line style="fill:none;stroke:#1C1C1B;stroke-linecap:round;stroke-linejoin:round;stroke-miterlimit:10;" x1="260.967" y1="79.35" x2="251.403" y2="91.305"/>
			
				<line style="fill:none;stroke:#1C1C1B;stroke-linecap:round;stroke-linejoin:round;stroke-miterlimit:10;" x1="266.705" y1="79.35" x2="257.141" y2="91.305"/>
			
				<line style="fill:none;stroke:#1C1C1B;stroke-linecap:round;stroke-linejoin:round;stroke-miterlimit:10;" x1="269.218" y1="86.987" x2="286.952" y2="86.987"/>
		</g>
		<g>
			<path style="fill:none;stroke:#1C1C1B;stroke-linecap:round;stroke-linejoin:round;stroke-miterlimit:10;" d="M192.244,412.634
				c0,1.585,1.302,2.869,2.908,2.869c1.606,0,2.908-1.285,2.908-2.869s-1.302-2.869-2.908-2.869
				C193.547,409.765,192.244,411.05,192.244,412.634z"/>
			
				<line style="fill:none;stroke:#1C1C1B;stroke-linecap:round;stroke-linejoin:round;stroke-miterlimit:10;" x1="229.318" y1="405.244" x2="239.012" y2="417.199"/>
			
				<line style="fill:none;stroke:#1C1C1B;stroke-linecap:round;stroke-linejoin:round;stroke-miterlimit:10;" x1="223.501" y1="405.244" x2="233.196" y2="417.199"/>
			
				<line style="fill:none;stroke:#1C1C1B;stroke-linecap:round;stroke-linejoin:round;stroke-miterlimit:10;" x1="220.955" y1="412.881" x2="202.98" y2="412.881"/>
		</g>
	</g>
</g>
</svg>
