<?xml version="1.0" encoding="utf-8"?>
<!-- Generator: Adobe Illustrator 27.5.0, SVG Export Plug-In . SVG Version: 6.00 Build 0)  -->
<svg version="1.1" xmlns="http://www.w3.org/2000/svg" xmlns:xlink="http://www.w3.org/1999/xlink" x="0px" y="0px"
	 viewBox="0 0 750 500" style="enable-background:new 0 0 750 500;" xml:space="preserve">
<g id="Background_Simple">
	<g>
		<path style="fill:#92E3A9;" d="M692.599,54.799c-12.346,1.851-27.431,7.008-34.132,8.253
			c-35.27,6.549-70.615,12.353-106.009,17.364c-57.545,8.146-115.363,14.532-173.117,15.812
			c-85.947,1.904-170.272-17.85-255.165-28.215C103.99,65.549,43.31,50.544,33.156,83.88c-13.17,43.24-12.618,95.179-14.081,140.376
			c-1.561,48.215-3.073,96.372-3.528,144.529c-0.156,16.488,1.094,33.427,7.194,47.844c7.636,18.048,21.825,25.806,37.681,28.328
			c28.683,4.562,57.85,3.128,86.811,1.988c39.156-1.541,78.305-5.182,117.411-9.052c67.687-6.699,136.514-18.027,204.278-15.551
			c47.569,1.738,94.358,11.144,141.025,20.579c18.901,3.822,37.454,9.732,56.608,11.937c15.513,1.786,39.218,3.51,51.965-11.057
			c10.706-12.234,11.143-40.841,12.507-56.827c2.938-34.44,3.303-69.142,3.102-103.61c-0.375-64.594-1.144-131.782-10.832-195.096
			C720.012,66.799,711.952,51.898,692.599,54.799z"/>
		<path style="opacity:0.7;fill:#FFFFFF;" d="M692.599,54.799c-12.346,1.851-27.431,7.008-34.132,8.253
			c-35.27,6.549-70.615,12.353-106.009,17.364c-57.545,8.146-115.363,14.532-173.117,15.812
			c-85.947,1.904-170.272-17.85-255.165-28.215C103.99,65.549,43.31,50.544,33.156,83.88c-13.17,43.24-12.618,95.179-14.081,140.376
			c-1.561,48.215-3.073,96.372-3.528,144.529c-0.156,16.488,1.094,33.427,7.194,47.844c7.636,18.048,21.825,25.806,37.681,28.328
			c28.683,4.562,57.85,3.128,86.811,1.988c39.156-1.541,78.305-5.182,117.411-9.052c67.687-6.699,136.514-18.027,204.278-15.551
			c47.569,1.738,94.358,11.144,141.025,20.579c18.901,3.822,37.454,9.732,56.608,11.937c15.513,1.786,39.218,3.51,51.965-11.057
			c10.706-12.234,11.143-40.841,12.507-56.827c2.938-34.44,3.303-69.142,3.102-103.61c-0.375-64.594-1.144-131.782-10.832-195.096
			C720.012,66.799,711.952,51.898,692.599,54.799z"/>
	</g>
</g>
<g id="Speech_Bubble">
	<path style="fill:#FFFFFF;stroke:#263238;stroke-miterlimit:10;" d="M172.747,66.133h-44.139c-4.157,0-7.527,3.37-7.527,7.527
		v61.261c0,4.157,3.37,7.527,7.527,7.527h30.928l-10.081,36.2l20.749-36.2h2.544c4.157,0,7.527-3.37,7.527-7.527V73.66
		C180.274,69.503,176.904,66.133,172.747,66.133z"/>
</g>
<g id="Light_Bulb">
	<g>
		<path style="fill:#92E3A9;stroke:#263238;stroke-linecap:round;stroke-linejoin:round;stroke-miterlimit:10;" d="M158.594,120.388
			c0.686-0.819,1.062-1.87,1.062-3.186l0.243-1.46c0.708-4.115,2.589-10.465,5.166-13.751c2.423-3.098,3.872-7.003,3.872-11.24
			c0-10.775-9.326-19.37-20.344-18.143c-8.175,0.896-14.868,7.379-15.996,15.532c-0.752,5.454,0.907,10.52,4.06,14.304
			c2.81,3.363,4.447,10.111,5.022,14.459l0.033,0.299c0,1.35,0.398,2.423,1.117,3.252"/>
		<path style="fill:#263238;stroke:#263238;stroke-linecap:round;stroke-linejoin:round;stroke-miterlimit:10;" d="M158.908,125.046
			h-15.812c-0.773,0-1.4-0.627-1.4-1.4v-1.853c0-0.773,0.627-1.4,1.4-1.4h15.812c0.773,0,1.4,0.627,1.4,1.4v1.853
			C160.309,124.419,159.682,125.046,158.908,125.046z"/>
		<path style="fill:#263238;stroke:#263238;stroke-linecap:round;stroke-linejoin:round;stroke-miterlimit:10;" d="M158.908,131.016
			h-15.812c-0.773,0-1.4-0.627-1.4-1.4v-1.853c0-0.773,0.627-1.4,1.4-1.4h15.812c0.773,0,1.4,0.627,1.4,1.4v1.853
			C160.309,130.389,159.682,131.016,158.908,131.016z"/>
		<path style="fill:none;stroke:#263238;stroke-linecap:round;stroke-linejoin:round;stroke-miterlimit:10;" d="M143.374,132.434
			c0.91,2.746,3.976,4.77,7.628,4.77c3.653,0,6.719-2.023,7.628-4.77H143.374z"/>
	</g>
</g>
<g id="Charts">
	<g>
		<path style="fill:#FFFFFF;stroke:#263238;stroke-linecap:round;stroke-linejoin:round;stroke-miterlimit:10;" d="M645.086,103.856
			h-77.414c-1.53,0-2.77-1.24-2.77-2.77V47.869c0-1.529,1.24-2.769,2.769-2.769h77.414c1.529,0,2.769,1.24,2.769,2.769v53.218
			C647.856,102.616,646.616,103.856,645.086,103.856z"/>
		<g>
			<g>
				<path style="fill:#263238;" d="M591.769,98.171c-12.935,0-23.458-10.523-23.458-23.457c0-11.187,7.957-20.868,18.92-23.019
					l1.115,5.683c-8.254,1.619-14.243,8.91-14.243,17.336c0,9.741,7.925,17.665,17.666,17.665c1.945,0,3.855-0.313,5.675-0.93
					l1.86,5.485C596.883,97.754,594.348,98.171,591.769,98.171z"/>
			</g>
			<g>
				<path style="fill:#92E3A9;" d="M608.388,68.704c-2.521-6.972-9.2-11.656-16.618-11.656c-1.152,0-2.304,0.111-3.424,0.331
					l-1.113-5.684c1.486-0.291,3.013-0.438,4.537-0.438c9.849,0,18.717,6.22,22.065,15.479L608.388,68.704z"/>
			</g>
			<g>
				<path style="fill:#A8A8A8;" d="M599.303,96.934l-1.859-5.485c7.172-2.43,11.991-9.156,11.991-16.735
					c0-2.066-0.352-4.088-1.047-6.01l5.447-1.969c0.924,2.555,1.392,5.24,1.392,7.979C615.227,84.776,608.828,93.706,599.303,96.934
					z"/>
			</g>
			<rect x="623.095" y="56.632" style="fill:#263238;" width="6.511" height="6.511"/>
			<rect x="623.095" y="72.568" style="fill:#92E3A9;" width="6.511" height="6.511"/>
			<rect x="623.095" y="88.503" style="fill:#A8A8A8;" width="6.511" height="6.511"/>
			
				<line style="fill:none;stroke:#263238;stroke-linecap:round;stroke-linejoin:round;stroke-miterlimit:10;" x1="633.033" y1="60.059" x2="643.999" y2="60.059"/>
			
				<line style="fill:none;stroke:#263238;stroke-linecap:round;stroke-linejoin:round;stroke-miterlimit:10;" x1="633.033" y1="75.481" x2="643.999" y2="75.481"/>
			
				<line style="fill:none;stroke:#263238;stroke-linecap:round;stroke-linejoin:round;stroke-miterlimit:10;" x1="585.741" y1="75.138" x2="596.707" y2="75.138"/>
			
				<line style="fill:none;stroke:#263238;stroke-linecap:round;stroke-linejoin:round;stroke-miterlimit:10;" x1="633.033" y1="91.587" x2="643.999" y2="91.587"/>
		</g>
	</g>
	<g>
		<path style="fill:#FFFFFF;stroke:#263238;stroke-linecap:round;stroke-linejoin:round;stroke-miterlimit:10;" d="M643.673,175.652
			h-74.662c-2.269,0-4.108-1.839-4.108-4.108v-56.02c0-2.269,1.839-4.108,4.108-4.108h74.662c2.269,0,4.108,1.839,4.108,4.108v56.02
			C647.781,173.813,645.942,175.652,643.673,175.652z"/>
		<g>
			<rect x="574.407" y="134.176" style="fill:#92E3A9;" width="10.273" height="33.797"/>
			<rect x="587.625" y="142.62" style="fill:#828282;" width="10.273" height="25.353"/>
			<rect x="600.843" y="130.081" style="fill:#92E3A9;" width="10.273" height="37.891"/>
			<rect x="614.061" y="128.035" style="fill:#828282;" width="10.273" height="39.938"/>
			<rect x="627.279" y="134.176" style="fill:#92E3A9;" width="10.273" height="33.797"/>
		</g>
		
			<line style="fill:none;stroke:#263238;stroke-linecap:round;stroke-linejoin:round;stroke-miterlimit:10;" x1="575.64" y1="119.076" x2="630.151" y2="119.076"/>
		
			<line style="fill:none;stroke:#263238;stroke-linecap:round;stroke-linejoin:round;stroke-miterlimit:10;" x1="575.64" y1="124.444" x2="598.353" y2="124.444"/>
	</g>
</g>
<g id="Gears">
	<g>
		<path style="fill:#263238;" d="M375.298,219.19l9.253,1.275l2.225-9.751l-8.583-2.767c0-0.026,0.002-0.052,0.002-0.078
			c0-3.255-0.66-6.355-1.854-9.174l6.464-6.152l-6.236-7.819l-7.197,4.774c-2.535-2.035-5.497-3.558-8.734-4.408l-0.754-8.591
			h-10.001l-0.743,8.471c-3.273,0.784-6.279,2.249-8.861,4.24l-7.229-4.795l-6.236,7.819l6.327,6.022
			c-1.275,2.848-2.002,5.993-2.045,9.304l-8.589,2.769l2.226,9.751l9.063-1.249c1.435,2.724,3.387,5.132,5.727,7.094l-3.327,8.804
			l9.011,4.339l4.816-8.102c1.494,0.297,3.037,0.456,4.618,0.456c1.464,0,2.894-0.14,4.283-0.396l4.882,8.214l9.011-4.339
			l-3.313-8.765C371.857,224.221,373.829,221.864,375.298,219.19z M341.888,207.869c0-7.044,5.71-12.755,12.755-12.755
			c7.044,0,12.755,5.711,12.755,12.755c0,7.044-5.71,12.755-12.755,12.755C347.599,220.624,341.888,214.913,341.888,207.869z"/>
		<path style="fill:#263238;" d="M413.93,183.324l7.182,0.99l1.727-7.568l-6.662-2.148c0-0.02,0.001-0.04,0.001-0.061
			c0-2.526-0.513-4.932-1.439-7.121l5.017-4.775l-4.84-6.069l-5.586,3.705c-1.967-1.579-4.267-2.762-6.779-3.421l-0.585-6.668
			h-7.763l-0.577,6.575c-2.54,0.608-4.873,1.745-6.878,3.29l-5.611-3.722l-4.84,6.069l4.911,4.674
			c-0.99,2.21-1.554,4.651-1.587,7.222l-6.667,2.149l1.727,7.568l7.034-0.969c1.114,2.114,2.629,3.984,4.445,5.506l-2.582,6.833
			l6.994,3.368l3.738-6.289c1.159,0.231,2.357,0.354,3.585,0.354c1.136,0,2.246-0.109,3.325-0.307l3.79,6.376l6.994-3.368
			l-2.571-6.803C411.259,187.229,412.79,185.399,413.93,183.324z M387.998,174.537c0-5.468,4.432-9.9,9.9-9.9
			c5.467,0,9.9,4.432,9.9,9.9c0,5.467-4.432,9.9-9.9,9.9C392.431,184.436,387.998,180.004,387.998,174.537z"/>
	</g>
</g>
<g id="Text">
	<g>
		<path style="fill:#263238;" d="M328.287,292.996l7.799-36.731h4.943l7.845,36.731h-4.852l-1.678-9.251h-7.482l-1.769,9.251
			H328.287z M335.542,280.072h6.122l-3.083-16.551L335.542,280.072z"/>
		<path style="fill:#263238;" d="M361.162,293.449c-2.297,0-4.134-0.49-5.509-1.474c-1.376-0.981-2.374-2.41-2.993-4.285
			c-0.62-1.874-0.93-4.126-0.93-6.757v-12.288c0-2.69,0.279-4.98,0.839-6.871c0.559-1.889,1.557-3.333,2.993-4.331
			c1.436-0.997,3.438-1.496,6.008-1.496c2.297,0,4.149,0.386,5.555,1.156c1.406,0.771,2.426,1.95,3.061,3.537
			c0.635,1.587,0.953,3.59,0.953,6.009v1.36h-4.807v-1.134c0-1.603-0.106-2.909-0.318-3.923c-0.211-1.013-0.643-1.769-1.292-2.268
			c-0.65-0.498-1.671-0.748-3.061-0.748c-1.512,0-2.607,0.348-3.288,1.043c-0.68,0.696-1.104,1.641-1.27,2.835
			c-0.167,1.195-0.25,2.548-0.25,4.059v13.604c0,1.753,0.128,3.219,0.385,4.398c0.257,1.179,0.749,2.056,1.474,2.63
			c0.725,0.574,1.753,0.861,3.083,0.861c1.33,0,2.358-0.317,3.083-0.952c0.725-0.635,1.224-1.571,1.496-2.812
			c0.272-1.239,0.408-2.781,0.408-4.625v-2.539h-4.671v-3.628h9.296v18.184h-3.22l-0.499-4.217c-0.484,1.36-1.24,2.479-2.268,3.355
			C364.397,293.011,362.976,293.449,361.162,293.449z"/>
		<path style="fill:#263238;" d="M376.942,292.996v-36.731h5.033v36.731H376.942z"/>
		<path style="fill:#263238;" d="M387.916,292.996v-36.731h5.123v33.058h9.387v3.673H387.916z"/>
		<path style="fill:#263238;" d="M405.918,292.996v-36.731h14.239v3.81h-9.115v12.153h7.392v3.628h-7.392v13.468h9.206v3.673
			H405.918z"/>
	</g>
</g>
<g id="Arrows">
	<g>
		<path style="fill:#92E3A9;stroke:#263238;stroke-linecap:round;stroke-linejoin:round;stroke-miterlimit:10;" d="M551.768,236.882
			c0.251,46.599-17.547,90.606-50.114,123.912c-32.513,33.249-76.001,52.032-122.453,52.889c-1.091,0.02-2.192,0.03-3.296,0.03
			h-196.58l15.949-24.08l-15.949-26.92h196.58c0.785,0,1.568-0.007,2.349-0.022c32.979-0.608,63.851-13.945,86.936-37.554
			c23.122-23.646,35.758-54.892,35.579-87.981c-0.179-33.272-13.237-64.484-36.77-87.886
			c-23.017-22.889-53.451-35.712-85.909-36.264l2.56,10.949l-50.837-27.891l33.198-47.542l3.211,13.732
			c3.223-0.175,6.46-0.274,9.681-0.274c46.846,0,90.903,18.157,124.058,51.127C533.116,146.081,551.516,190.038,551.768,236.882z"/>
		<path style="fill:#263238;stroke:#263238;stroke-linecap:round;stroke-linejoin:round;stroke-miterlimit:10;" d="M624.349,387.097
			l-43.151-38.734v13.234h-65.579c-2.258,2.558-4.585,5.069-6.987,7.526c-18.19,18.602-39.435,33.176-62.624,43.251l-0.204,0.224
			h135.394v13.234L624.349,387.097z"/>
		<path style="fill:#263238;stroke:#263238;stroke-linecap:round;stroke-linejoin:round;stroke-miterlimit:10;" d="M250.909,237.711
			c0-58.283,40.243-107.325,94.396-120.847l-28.237-17.131l25.62-33.485c-80.637,15.385-141.78,86.413-141.78,171.464
			c0,42.368,15.177,81.254,40.374,111.521h78.746C279.094,328.798,250.909,286.488,250.909,237.711z"/>
	</g>
</g>
<g id="Character_2">
	<g>
		<g>
			<path style="fill:#FFFFFF;stroke:#263238;stroke-linecap:round;stroke-linejoin:round;stroke-miterlimit:10;" d="
				M670.364,114.577c0,0-3.382,12.56-2.657,13.768c0.724,1.208,2.415,0.725,1.449,3.14c-0.966,2.416-3.14,7.005-2.657,8.937
				s3.14,3.382,3.14,3.382s1.208,8.696,2.415,10.387c1.208,1.691,7.729,0.725,7.729,0.725l0.483,6.522l19.324-1.208l-0.725-11.594
				l-0.966-35.749L670.364,114.577z"/>
			<path style="fill:#263238;stroke:#263238;stroke-linecap:round;stroke-linejoin:round;stroke-miterlimit:10;" d="
				M706.113,110.471c-3.14-4.831-9.42-6.039-12.56-5.556c-0.556,0.086-2.858,0.093-5.881,0.197
				c-2.303-0.863-5.138-1.771-5.138-1.771s0,0-1.088-2.176c-1.088-2.176-8.162,2.721-8.162,2.721s0,0,0.272-1.904
				c0.272-1.904-5.169,2.176-7.073,4.353c-1.904,2.176-1.36,3.809-0.272,6.801c0.254,0.7,0.538,1.252,0.822,1.694
				c0.186,0.504,0.54,0.923,1.2,1.321c0.403,0.29,0.683,0.359,0.683,0.359c2.657,1.208,3.623,1.208,3.623,1.208
				s-0.725,3.382-0.966,5.797c-0.241,2.416,4.106,5.073,4.106,5.073s-0.242,3.623,0.242,4.831c0.483,1.208,1.691,1.449,2.415,0.483
				c0.725-0.966,1.208-5.555,1.932-3.623s3.623,16.425,5.556,18.116c1.932,1.691,10.628,0.725,13.043,0.242
				c2.415-0.483,7.005-10.628,9.179-16.667C710.219,125.93,709.253,115.302,706.113,110.471z"/>
			<path style="fill:#263238;stroke:#263238;stroke-linecap:round;stroke-linejoin:round;stroke-miterlimit:10;" d="
				M675.678,128.587l-1.034,13.657l-5.004,1.56c0,0,0.923,6.057,0.379,9.049c-0.544,2.993-0.544,4.897,2.448,5.169
				c2.993,0.272,7.289-1.59,7.317-3.107c0.028-1.518-1.595-12.671-1.595-12.671l2.078-11.966L675.678,128.587z"/>
			<path style="fill:#FFFFFF;stroke:#263238;stroke-linecap:round;stroke-linejoin:round;stroke-miterlimit:10;" d="
				M678.189,130.157c0,0,0.59,4.127,0.59,6.781c0,2.653-1.769,4.127-0.59,5.307c1.179,1.179,2.064,0.59,2.948-1.474
				c0.884-2.064,1.474-5.602,1.179-7.665C682.021,131.041,681.726,126.619,678.189,130.157z"/>
			<path style="fill:#92E3A9;stroke:#263238;stroke-linecap:round;stroke-linejoin:round;stroke-miterlimit:10;" d="
				M675.678,160.713l-5.314,9.662c0,0,13.285-3.865,20.532-3.865c7.246,0,15.218,1.449,15.218,1.449l-3.382-9.42
				C702.731,158.539,684.373,156.607,675.678,160.713z"/>
			<g>
				<path style="fill:#FFFFFF;stroke:#263238;stroke-linecap:round;stroke-linejoin:round;stroke-miterlimit:10;" d="
					M725.678,288.092c0,0,0,8.454-0.724,12.077c-0.725,3.623-5.556,9.179-7.488,10.145c-1.932,0.966-4.348,1.208-4.831,0
					c-0.483-1.208-1.208-0.725-0.483-7.005c0.725-6.28,3.382-18.358,3.382-18.358L725.678,288.092z"/>
				<path style="fill:none;stroke:#263238;stroke-linecap:round;stroke-linejoin:round;stroke-miterlimit:10;" d="M716.51,291.129
					c0,0-0.548,4.018,0.183,5.844c0.731,1.826,2.009,3.836,2.009,3.836s-0.731,2.922-2.922,4.566
					c-2.192,1.644-2.192,1.644-2.192,1.644"/>
				<path style="fill:none;stroke:#263238;stroke-linecap:round;stroke-linejoin:round;stroke-miterlimit:10;" d="M714.683,299.53
					c0,0,2.922,1.279,4.018,1.279"/>
			</g>
			<path style="fill:#92E3A9;stroke:#263238;stroke-linecap:round;stroke-linejoin:round;stroke-miterlimit:10;" d="
				M727.369,280.362l-1.691,7.729c0,0-3.14,0.725-6.28,0.242c-3.14-0.483-3.865-3.382-3.865-3.382l0.724-6.763L727.369,280.362z"/>
			<path style="fill:#92E3A9;stroke:#263238;stroke-linecap:round;stroke-linejoin:round;stroke-miterlimit:10;" d="M726.18,176.413
				c0,0,3.382,20.531,5.556,35.749c2.174,15.217,2.638,29.71,2.155,36.957c-0.483,7.246-3.382,30.519-4.348,32.209
				c-0.966,1.691-7.488,2.416-10.145,1.208c-2.657-1.208-3.865-2.657-3.865-7.246c0-4.589,2.416-47.427,2.416-47.427L726.18,176.413
				z"/>
			<g>
				<g>
					<path style="fill:#263238;stroke:#263238;stroke-linecap:round;stroke-linejoin:round;stroke-miterlimit:10;" d="
						M726.602,434.109c0,0,2.229-2.745,1.648-5.262c-0.374-1.622-1.47-5.415-2.1-8.996l-4.194-156.237l-64.636-3.3l-1.753,173.051
						c0,0-7.331,5.616-11.24,6.733c-1.826,0.522-5.921,1.287-7.738,1.955c-2.228,0.819-1.697,4.157,0.677,4.187
						c0.044,0.001,0.088,0.001,0.133,0.001h33.713c3.361,0,4.985-1.994,5.014-5.355c0-0.039-1.254-5.727-1.254-5.766
						c0-3.909,16.226-128.364,16.226-128.364l18.953,114.006c0.005,2.022,0.046,10.502,0.387,11.184
						c0.296,0.592,1.153,2.193,1.543,2.919l0.52,12.288h11.261h3.259h4.262L726.602,434.109z"/>
					
						<line style="fill:none;stroke:#878787;stroke-linecap:round;stroke-linejoin:round;stroke-miterlimit:10;" x1="682.631" y1="306.74" x2="712.151" y2="303.309"/>
				</g>
				<path style="fill:#92E3A9;stroke:#263238;stroke-linecap:round;stroke-linejoin:round;stroke-miterlimit:10;" d="
					M672.296,169.167c0,0-10.802,4.59-15.875,7.005c-5.073,2.416-7.246,3.14-7.246,3.14s8.145,76.896,8.145,81.002
					c0,4.106-0.242,4.348,1.208,5.555c1.449,1.208,8.946,1.764,22.232,1.522c13.285-0.242,35.158-0.879,36.366-0.879
					c1.208,0,3.382-0.725,4.831-2.899c1.449-2.174,3.982-86.235,4.224-87.201c0.242-0.966-19.102-7.971-20.792-8.454
					C703.697,167.476,694.527,163.575,672.296,169.167z"/>
				<path style="fill:none;stroke:#263238;stroke-linecap:round;stroke-linejoin:round;stroke-miterlimit:10;" d="M710.24,218.413
					c-6.909,9.945-17.82,24.402-26.313,29.882"/>
				<path style="fill:none;stroke:#263238;stroke-linecap:round;stroke-linejoin:round;stroke-miterlimit:10;" d="M716.972,208.293
					c0,0-1.257,2.011-3.354,5.156"/>
				<path style="fill:none;stroke:#263238;stroke-linecap:round;stroke-linejoin:round;stroke-miterlimit:10;" d="M683.066,253.556
					c-1.176,0.775-2.35,1.499-3.487,2.13"/>
				<path style="fill:none;stroke:#263238;stroke-linecap:round;stroke-linejoin:round;stroke-miterlimit:10;" d="M696.971,242.642
					c0,0-5.304,4.822-11.245,9.08"/>
			</g>
			<g>
				<path style="fill:#FFFFFF;stroke:#263238;stroke-linecap:round;stroke-linejoin:round;stroke-miterlimit:10;" d="
					M618.641,197.887c0,0,0.93-1.628,2.326-4.419c1.395-2.791,1.163-6.279,1.163-8.14s2.093-2.558,2.093-4.651
					c0-2.093-3.023-1.861-4.651-0.465c-1.628,1.395-2.093,5.582-2.093,5.582s-2.578-4.36-3.954-7.442
					c-1.236-2.769-2.945-7.535-5.27-8.233c-2.326-0.698-2.208,2.176-1.976,2.874c0.232,0.698,0.701,2.481,1.437,3.951
					c0.539,1.078,1.623,4.199,1.623,4.199s-3.256-2.558-4.419-2.558c-1.163,0-2.093,1.395-1.395,2.558c0,0-2.791,1.163-2.093,3.023
					c0.698,1.861,0.93,2.558,0.93,2.558s-0.698,0.93,0,3.256c0.698,2.326,3.721,6.279,4.884,8.14
					c1.163,1.86,2.558,2.791,2.558,2.791L618.641,197.887z"/>
				<path style="fill:none;stroke:#263238;stroke-linecap:round;stroke-linejoin:round;stroke-miterlimit:10;" d="M603.524,181.143
					c0,0,1.497,2.268,2.575,3.165"/>
				<path style="fill:none;stroke:#263238;stroke-linecap:round;stroke-linejoin:round;stroke-miterlimit:10;" d="M602.362,186.724
					c0,0,1.044,1.715,1.582,2.074"/>
			</g>
			<path style="fill:#92E3A9;stroke:#263238;stroke-linecap:round;stroke-linejoin:round;stroke-miterlimit:10;" d="
				M611.426,209.988l-4.106-8.937c0,0,1.932-3.382,7.005-4.348c5.073-0.966,5.797,0,5.797,0l2.657,9.179
				C622.779,205.882,614.083,206.607,611.426,209.988z"/>
			<path style="fill:#92E3A9;stroke:#263238;stroke-linecap:round;stroke-linejoin:round;stroke-miterlimit:10;" d="
				M636.064,226.414c0,0-7.488-12.802-9.42-17.391c-1.932-4.589-4.589-5.797-8.937-5.314c-4.348,0.483-8.213,5.073-8.213,8.454
				c0,3.382,15.273,35.161,15.998,37.094c0.725,1.932,6.224,3.969,9.848,1.795C638.963,248.878,639.446,237.042,636.064,226.414z"/>
			<g>
				<path style="fill:#92E3A9;stroke:#263238;stroke-linecap:round;stroke-linejoin:round;stroke-miterlimit:10;" d="
					M649.175,179.312c0,0-9.957,29.37-11.648,33.96c-1.691,4.589-9.434,25.461-11.608,29.567c-2.174,4.106-0.242,11.111,6.28,12.077
					c6.522,0.966,7.488-0.966,10.87-5.797c3.382-4.831,11.727-16.912,11.727-16.912S651.107,184.867,649.175,179.312z"/>
				
					<line style="fill:none;stroke:#263238;stroke-linecap:round;stroke-linejoin:round;stroke-miterlimit:10;" x1="654.795" y1="232.207" x2="646.067" y2="212.854"/>
				
					<line style="fill:none;stroke:#263238;stroke-linecap:round;stroke-linejoin:round;stroke-miterlimit:10;" x1="642.703" y1="222.153" x2="650.023" y2="227.89"/>
			</g>
		</g>
	</g>
</g>
<g id="Character_1">
	<g>
		<path style="fill:#263238;stroke:#263238;stroke-miterlimit:10;" d="M100.937,110.388c0,0,5.491,6.125,4.858,8.871
			c-0.634,2.746-3.168,8.448-3.168,8.448l-13.306-16.052l7.604-4.647L100.937,110.388z"/>
		<path style="fill:#92E3A9;stroke:#263238;stroke-miterlimit:10;" d="M110.061,174.842c0,0,1.991,0,3.412,5.403
			c1.422,5.403,12.512,35.546,13.365,40.665c0.853,5.119,2.559,9.384-1.137,11.944c-3.697,2.559-10.815,4.147-14.228-0.118
			c-3.412-4.266-0.844-6.138-3.119-18.935c-2.275-12.797-4.266-25.878-4.266-33.271C104.09,173.136,109.208,174.558,110.061,174.842
			z"/>
		<path style="fill:#FFFFFF;stroke:#263238;stroke-miterlimit:10;" d="M133.212,214.402c0,0-6.846,7.336-9.952,11.786
			c-3.106,4.45-18.996,16.161-12.862,18.161c6.134,2,12.682-5.01,14.38-7.933c1.698-2.923,15.565-13.432,15.565-13.432
			L133.212,214.402z"/>
		<path style="fill:#92E3A9;stroke:#263238;stroke-miterlimit:10;" d="M128.236,219.64l3.143,11.786
			c0,0-12.571,14.143-15.452,14.928c-2.881,0.786-4.19-6.024-4.976-7.857c-0.786-1.833-0.449-8.681-0.449-8.681L128.236,219.64z"/>
		<g>
			<path style="fill:#FFFFFF;stroke:#263238;stroke-miterlimit:10;" d="M70.249,336.365l0.853,9.1c0,0-2.844,18.768-2.559,28.721
				c0.284,9.953,4.55,25.878,5.119,30.428c0.569,4.55,3.697,17.915,3.413,19.906c-0.284,1.991-0.284,3.697-0.284,3.697
				s-3.128,2.275-3.128,5.119c0,2.844,0.853,13.081,0.853,13.081h3.981l0.569-6.54l2.844,7.109h21.328c0,0,2.275,0.569,1.137-1.706
				c-1.137-2.275-7.963-5.972-7.963-5.972l-8.487-16.158c0,0,7.2-46.468,7.2-55.283c0-6.136,1.88-14.638,2.932-17.55
				c0.557-1.541,0.937-3.133,1.151-4.758l1.06-8.056L70.249,336.365z"/>
			<path style="fill:#92E3A9;stroke:#263238;stroke-miterlimit:10;" d="M104.374,445.279c-1.137-2.275-7.963-5.972-7.963-5.972
				s-5.403,0.853-8.531-0.569c-2.408-1.095-8.855-7.24-11.699-10.014c-0.909,0.823-2.52,2.567-2.52,4.61
				c0,2.844,0.853,13.081,0.853,13.081h3.981l0.569-6.54l2.844,7.109h21.328C103.237,446.985,105.511,447.554,104.374,445.279z"/>
		</g>
		<g>
			<path style="fill:#FFFFFF;stroke:#263238;stroke-miterlimit:10;" d="M56.315,336.365l0.853,9.1c0,0-2.844,18.768-2.559,28.721
				c0.284,9.953,4.55,25.878,5.119,30.428c0.569,4.55,3.697,17.915,3.413,19.906c-0.285,1.991-0.285,3.697-0.285,3.697
				s-3.128,2.275-3.128,5.119c0,2.844,0.853,13.081,0.853,13.081h3.981l0.569-6.54l2.844,7.109h21.328c0,0,2.275,0.569,1.137-1.706
				c-1.137-2.275-7.962-5.972-7.962-5.972l-6.541-15.64c0,0,4.017-48.785,4.017-57.6c0-5.352,1.422-10.651,2.539-13.988
				c0.848-2.533,1.244-5.195,1.129-7.864l-0.291-6.712L56.315,336.365z"/>
			<path style="fill:#92E3A9;stroke:#263238;stroke-miterlimit:10;" d="M90.44,445.279c-1.137-2.275-7.962-5.972-7.962-5.972
				s-5.403,0.853-8.531-0.569c-2.408-1.095-8.855-7.24-11.699-10.014c-0.909,0.823-2.52,2.567-2.52,4.61
				c0,2.844,0.853,13.081,0.853,13.081h3.981l0.569-6.54l2.844,7.109h21.328C89.302,446.985,91.577,447.554,90.44,445.279z"/>
		</g>
		<path style="fill:#263238;stroke:#263238;stroke-miterlimit:10;" d="M40.959,254.75c0,0-3.981,21.612-2.275,34.693
			c1.706,13.081,11.375,48.343,11.375,48.343s13.365,3.412,31.281,2.559c17.915-0.853,29.575-2.844,29.575-2.844
			s9.1-41.234,8.815-59.718c-0.284-18.484-2.844-23.034-2.844-23.034l-73.652-5.972L40.959,254.75z"/>
		<g>
			<path style="fill:#92E3A9;stroke:#263238;stroke-miterlimit:10;" d="M111.483,184.226l-0.569,11.375
				c0,0,2.275,9.384,2.844,15.356c0.569,5.972-2.275,20.475-2.275,20.475l7.962,30.143c0,0-3.128,1.991-7.109,4.834
				c-3.981,2.844-13.934,3.981-13.934,3.981l-1.706-6.825l-1.991,5.972c0,0-11.09,0.853-30.143-3.128
				c-19.053-3.981-25.025-8.531-25.025-8.531l5.688-33.271c0,0-3.981-20.475-4.834-32.418c-0.853-11.944,5.179-20.586,8.876-22.577
				c3.697-1.991,17.631-7.678,17.631-7.678s12.736,3.809,21.551,4.946c8.816,1.137,19.906,7.109,21.612,7.962
				c1.706,0.853,1.706,3.412,1.706,3.412"/>
		</g>
		<path style="fill:#92E3A9;stroke:#263238;stroke-miterlimit:10;" d="M69.045,157.276c0,0-6.548,0.845-7.815,2.746
			c-1.267,1.901-0.619,6.406-0.619,6.406l2.957,20.065l13.081-1.548l-3.59,4.435l17.319,7.604l7.392-10.138l-4.224-3.379
			l12.884-2.323c0,0-10.349-18.798-16.474-22.599C83.829,154.742,69.045,157.276,69.045,157.276z"/>
		<polygon style="fill:#263238;stroke:#263238;stroke-miterlimit:10;" points="97.8,149.599 99.673,177.689 88.687,169.526 
			88.265,147.983 		"/>
		<path style="fill:#FFFFFF;stroke:#263238;stroke-miterlimit:10;" d="M88.687,153.897c0,0,0,7.181,0,15.629s0.845,24.078,0,24.712
			c-0.845,0.634-16.474-27.88-18.164-29.992c-1.69-2.112-2.535-4.224-2.535-4.224v-15.418l20.276,3.379L88.687,153.897z"/>
		<g>
			<path style="fill:#FFFFFF;stroke:#263238;stroke-miterlimit:10;" d="M97.316,113.928c0,0,3.995,4.61,5.532,8.606
				c1.537,3.996,1.844,14.753,0.615,18.441c-1.229,3.688-4.303,11.987-5.532,13.831c-1.229,1.844-3.996,2.459-7.069,1.844
				c-3.073-0.615-11.372-6.147-11.372-6.147s-1.844-30.735-1.229-32.886c0.615-2.151,14.445-6.454,14.445-6.454L97.316,113.928z"/>
			<path style="fill:#263238;" d="M91.01,131.192c0,1.108-0.378,2.007-0.845,2.007c-0.467,0-0.845-0.898-0.845-2.007
				c0-1.108,0.378-2.007,0.845-2.007C90.632,129.186,91.01,130.084,91.01,131.192z"/>
			<path style="fill:#263238;" d="M101.993,130.559c0,1.108-0.378,2.007-0.845,2.007c-0.466,0-0.845-0.898-0.845-2.007
				c0-1.108,0.378-2.007,0.845-2.007C101.615,128.552,101.993,129.45,101.993,130.559z"/>
			<path style="fill:none;stroke:#263238;stroke-miterlimit:10;" d="M99.036,127.496c0,0-1.267,3.379-0.634,4.435
				s5.069,3.802,3.802,5.491c-1.267,1.69-2.323,2.535-4.013,2.535"/>
			<path style="fill:none;stroke:#263238;stroke-miterlimit:10;" d="M99.67,143.548c0,0-2.957,2.323-7.181,0"/>
			<path style="fill:none;stroke:#263238;stroke-miterlimit:10;" d="M86.997,126.651c0,0,2.323-3.802,6.336-1.901"/>
			<path style="fill:none;stroke:#263238;stroke-miterlimit:10;" d="M99.248,126.018c0,0,3.379-2.746,4.435,0.211"/>
		</g>
		<g>
			<g>
				<g>
					<path style="fill:#FFFFFF;stroke:#263238;stroke-miterlimit:10;" d="M103.64,217.334l-4.444,10.993l-6.783,3.508l2.304,7.346
						l11.73-5.475c0,0,3.976-5.613,6.549-8.654c2.573-3.041,4.912-7.251,4.912-7.251L103.64,217.334z"/>
					<path style="fill:#FFFFFF;stroke:#263238;stroke-miterlimit:10;" d="M105.979,222.012c0,0,2.339,4.21,0.936,6.783"/>
					<polygon style="fill:#263238;stroke:#263238;stroke-miterlimit:10;" points="114.633,193.009 98.26,221.778 138.958,218.036 
						153.46,189.5 					"/>
				</g>
				<path style="fill:#92E3A9;stroke:#263238;stroke-miterlimit:10;" d="M51.419,168.661c0,0-7.264,2.404-11.029,6.032
					c-3.764,3.628-5.82,8.316-6.688,13.835c-0.868,5.519,7.812,57.392,9.992,60.211c2.179,2.819,56.633-10.56,56.633-10.56
					l-2.025-10.507l-38.578,3.346l-1.546-44.488"/>
			</g>
			<g>
				<path style="fill:#FFFFFF;stroke:#263238;stroke-miterlimit:10;" d="M147.612,209.615c0,0-7.017-10.525-8.186-9.59
					c-1.169,0.936-0.936,1.871,0.234,3.508c1.169,1.637,3.742,6.315,3.742,6.315s-7.719-3.041-9.59-3.742
					c-1.871-0.702-3.742,1.169-3.742,2.105c0,0.936-1.637,4.678-1.637,5.38c0,0.702,8.186,10.057,9.356,10.993
					c1.17,0.936,1.17,1.637,3.508-0.702C143.636,221.544,147.612,209.615,147.612,209.615z"/>
				<line style="fill:none;stroke:#263238;stroke-miterlimit:10;" x1="130.07" y1="208.212" x2="141.917" y2="213.605"/>
				<line style="fill:none;stroke:#263238;stroke-miterlimit:10;" x1="129.406" y1="211.792" x2="139.922" y2="219.408"/>
			</g>
		</g>
		<path style="fill:#263238;stroke:#263238;stroke-miterlimit:10;" d="M95.235,112.711l-10.772,8.237l-0.422,60.899l-35.745-15.376
			c0,0,4.013-53.513,8.026-60.483c4.013-6.97,25.395-6.16,32.154-5.104c6.759,1.056,13.517,9.082,12.884,10.56
			C100.726,112.923,95.235,112.711,95.235,112.711z"/>
	</g>
</g>
<g id="Floor">
	<g>
		<line style="fill:none;stroke:#263238;stroke-miterlimit:10;" x1="296.578" y1="446.694" x2="743.511" y2="446.694"/>
		<line style="fill:none;stroke:#263238;stroke-miterlimit:10;" x1="17.202" y1="446.694" x2="285.399" y2="446.694"/>
	</g>
</g>
</svg>
